<?xml version="1.0" standalone="no"?>
<!DOCTYPE svg PUBLIC "-//W3C//DTD SVG 20010904//EN"
 "http://www.w3.org/TR/2001/REC-SVG-20010904/DTD/svg10.dtd">
<svg version="1.0" xmlns="http://www.w3.org/2000/svg"
 width="91.000000pt" height="91.000000pt" viewBox="0 0 91.000000 91.000000"
 preserveAspectRatio="xMidYMid meet">
<metadata>
Created by potrace 1.11, written by Peter Selinger 2001-2013
</metadata>
<g transform="translate(0.000000,91.000000) scale(0.100000,-0.100000)"
fill="#000000" stroke="none">
<path d="M552 828 c-13 -7 -67 -68 -121 -137 -54 -70 -105 -132 -114 -140 -14
-11 -37 -11 -124 -3 -115 11 -156 8 -174 -14 -31 -38 23 -65 163 -84 54 -7
104 -18 112 -24 8 -6 44 -76 80 -156 67 -146 104 -200 138 -200 22 0 22 5 3
145 -21 157 -24 145 41 138 53 -6 56 -5 82 26 23 28 32 32 67 29 32 -2 43 -9
60 -36 47 -77 61 -96 78 -106 26 -16 36 8 24 58 -15 61 -9 112 18 167 32 62
32 79 1 79 -18 0 -39 -16 -73 -56 -42 -49 -51 -55 -78 -51 -64 11 -85 25 -85
57 0 29 -2 30 -44 30 -51 0 -76 8 -76 23 0 6 18 56 39 111 56 145 59 156 30
155 -13 0 -34 -5 -47 -11z"/>
</g>
</svg>
